#!OML:ASF F:\VICON\USERDATA\INSTALL\rory3\rory3.ASF
:FULLY-SPECIFIED
:DEGREES
261
root -1.85464 18.3853 7.12331 -6.44924 38.6576 2.22817
lowerback 3.69019 -4.5842 -2.61437
upperback 1.93427 -6.18347 0.262344
thorax 0.233304 -3.1132 1.91766
lowerneck -15.0876 -3.00173 -8.03922
upperneck 14.0382 -3.22322 5.53824
head 6.99569 -1.49328 2.77918
rclavicle -1.54804e-014 -6.75868e-015
rhumerus 57.7003 -25.1986 -66.7653
rradius 39.3322
rwrist -75.0641
rhand -37.9036 -20.8192
rfingers 7.12502
rthumb -10.9463 -50.5139
lclavicle -1.54804e-014 -6.75868e-015
lhumerus 49.3728 -10.7451 49.4406
lradius 53.4697
lwrist 83.5245
lhand -14.2597 40.6905
lfingers 7.12502
lthumb 11.8787 70.3335
rfemur -4.14556 25.3938 13.6089
rtibia 28.0211
rfoot -17.0536 -2.92065
rtoes -10.3817
lfemur -0.310699 -4.74556 -11.3546
ltibia 42.6502
lfoot -8.28342 10.0939
ltoes -19.6311
262
root -1.79348 18.3768 7.06654 -6.55785 38.3731 1.92711
lowerback 3.62269 -4.52059 -2.32289
upperback 1.89952 -6.08835 0.351041
thorax 0.209101 -3.06324 1.84227
lowerneck -14.7582 -3.02508 -8.10745
upperneck 14.0141 -3.28466 5.65054
head 6.93874 -1.52113 2.82263
rclavicle -2.4376e-014 6.36111e-015
rhumerus 57.2078 -25.0523 -65.0276
rradius 41.49
rwrist -76.6672
rhand -37.5704 -20.0004
rfingers 7.12502
rthumb -10.6249 -49.7118
lclavicle -2.4376e-014 6.36111e-015
lhumerus 49.7982 -10.0599 49.8417
lradius 54.8479
lwrist 83.5776
lhand -14.3181 40.2952
lfingers 7.12502
lthumb 11.8224 69.9415
rfemur -4.32491 25.8554 13.5887
rtibia 28.039
rfoot -17.0518 -3.2005
rtoes -10.4432
lfemur -0.0832366 -4.51084 -11.3826
ltibia 42.3375
lfoot -8.81457 10.2619
ltoes -20.6445
263
root -1.73652 18.3685 7.01225 -6.26517 38.0852 2.19798
lowerback 3.54112 -4.41568 -2.56431
upperback 1.81525 -5.95556 0.330348
thorax 0.18402 -2.99759 1.94758
lowerneck -14.3359 -3.04667 -8.08522
upperneck 13.9681 -3.35445 5.67026
head 6.85624 -1.55758 2.82057
rclavicle 7.8259e-014 -4.77083e-015
rhumerus 56.6712 -25.0155 -63.4898
rradius 43.8811
rwrist -78.1333
rhand -37.3792 -18.7509
rfingers 7.12502
rthumb -10.4405 -48.4717
lclavicle 7.8259e-014 -4.77083e-015
lhumerus 50.131 -9.32323 50.4271
lradius 56.3565
lwrist 83.7323
lhand -14.3175 40.0495
lfingers 7.12502
lthumb 11.8229 69.6957
rfemur -4.61864 26.3611 13.052
rtibia 28.1365
rfoot -17.1566 -3.45388
rtoes -10.6497
lfemur 0.221229 -4.23832 -11.9075
ltibia 41.8298
lfoot -9.46477 10.5088
ltoes -21.0134
264
root -1.68048 18.363 6.95943 -5.49956 37.8844 3.0525
lowerback 3.28423 -4.34111 -3.38075
upperback 1.72932 -5.87428 0.244488
thorax 0.308611 -2.96393 2.28764
lowerneck -14.0746 -3.02653 -8.06118
upperneck 14.0374 -3.34932 5.63866
head 6.83227 -1.56059 2.80911
rclavicle 9.22858e-014 -1.98785e-014
rhumerus 56.31 -24.9925 -62.2217
rradius 46.6031
rwrist -78.9951
rhand -37.0347 -18.4125
rfingers 7.12502
rthumb -10.1081 -48.1498
lclavicle 9.22858e-014 -1.98785e-014
lhumerus 50.3393 -8.38717 51.1409
lradius 57.9428
lwrist 83.9686
lhand -13.9181 39.6377
lfingers 7.12502
lthumb 12.208 69.2614
rfemur -5.088 26.7795 11.9171
rtibia 28.3025
rfoot -17.3521 -3.65944
rtoes -11.0943
lfemur 0.493397 -3.97281 -12.9523
ltibia 41.1619
lfoot -10.269 10.7651
ltoes -20.3787
265
root -1.62226 18.3585 6.90729 -4.89301 37.6707 3.69877
lowerback 3.08383 -4.30609 -3.99077
upperback 1.65563 -5.83796 0.201177
thorax 0.399586 -2.9511 2.56362
lowerneck -13.9566 -2.96693 -8.07869
upperneck 14.1454 -3.27044 5.60244
head 6.84075 -1.52891 2.80991
rclavicle 2.8712e-014 1.59028e-015
rhumerus 56.087 -24.9494 -61.1645
rradius 49.5642
rwrist -79.038
rhand -36.3464 -18.8965
rfingers 7.12502
rthumb -9.44402 -48.6649
lclavicle 2.8712e-014 1.59028e-015
lhumerus 50.4915 -7.30186 51.8939
lradius 59.627
lwrist 84.4311
lhand -13.3599 39.1219
lfingers 7.12502
lthumb 12.7463 68.7129
rfemur -5.52798 27.1824 10.9713
rtibia 28.5061
rfoot -17.516 -3.87484
rtoes -11.6122
lfemur 0.865397 -3.6348 -13.802
ltibia 40.4068
lfoot -11.2124 10.9023
ltoes -20.1857
266
root -1.56233 18.3508 6.85135 -4.64594 37.3463 3.96596
lowerback 3.07201 -4.23582 -4.18427
upperback 1.5889 -5.7505 0.211614
thorax 0.35149 -2.90696 2.68186
lowerneck -13.7271 -2.90157 -8.12453
upperneck 14.1701 -3.18404 5.56581
head 6.80309 -1.4963 2.81609
rclavicle -2.80162e-014 -1.19271e-014
rhumerus 55.7559 -24.9647 -60.0771
rradius 52.2581
rwrist -80.1666
rhand -35.6796 -16.6828
rfingers 7.12502
rthumb -8.80064 -46.4793
lclavicle -2.80162e-014 -1.19271e-014
lhumerus 50.6557 -6.2208 52.8151
lradius 61.3514
lwrist 84.8541
lhand -12.8444 38.7101
lfingers 7.12502
lthumb 13.2432 68.2694
rfemur -5.85427 27.5581 10.4103
rtibia 28.6922
rfoot -17.5772 -4.06646
rtoes -12.2731
lfemur 1.34763 -3.05429 -14.2963
ltibia 39.6278
lfoot -12.131 11.0779
ltoes -21.8287
267
root -1.50222 18.3383 6.79044 -4.53381 36.9773 4.1006
lowerback 3.16391 -4.11635 -4.17828
upperback 1.50495 -5.5974 0.183655
thorax 0.198502 -2.82557 2.66034
lowerneck -13.3743 -2.88994 -8.07084
upperneck 14.2065 -3.19742 5.50288
head 6.753 -1.5102 2.78794
rclavicle -3.57812e-015 -2.78299e-015
rhumerus 55.2833 -25.0882 -58.8955
rradius 55.0359
rwrist -80.5823
rhand -35.027 -15.7583
rfingers 7.12502
rthumb -8.17085 -45.5803
lclavicle -3.57812e-015 -2.78299e-015
lhumerus 50.8886 -5.24631 53.802
lradius 63.151
lwrist 85.1985
lhand -12.4721 38.2609
lfingers 7.12502
lthumb 13.602 67.7965
rfemur -6.15362 27.8747 9.95619
rtibia 28.8451
rfoot -17.5752 -4.18454
rtoes -12.7423
lfemur 1.84889 -2.32278 -14.6705
ltibia 38.8576
lfoot -12.9458 11.4224
ltoes -23.7911
268
root -1.4426 18.3266 6.72802 -4.32029 36.62 4.34916
lowerback 3.25814 -4.01914 -4.34246
upperback 1.40685 -5.47941 0.178614
thorax 0.0510438 -2.7627 2.75636
lowerneck -13.0467 -2.88203 -8.04109
upperneck 14.2372 -3.21067 5.45271
head 6.70597 -1.52381 2.76782
rclavicle 8.4732e-014 3.57812e-015
rhumerus 54.945 -25.2398 -57.7659
rradius 57.8443
rwrist -80.5557
rhand -34.578 -15.988
rfingers 7.12502
rthumb -7.7375 -45.8264
lclavicle 8.4732e-014 3.57812e-015
lhumerus 51.1211 -4.16018 54.9622
lradius 64.9668
lwrist 85.4325
lhand -11.9308 37.7732
lfingers 7.12502
lthumb 14.1237 67.2732
rfemur -6.5215 28.1027 9.34711
rtibia 28.9883
rfoot -17.5611 -4.17019
rtoes -13.2083
lfemur 2.29989 -1.66228 -15.1742
ltibia 38.0956
lfoot -13.6413 11.8375
ltoes -24.5162
269
root -1.38194 18.3164 6.66858 -3.97749 36.1843 4.71543
lowerback 3.23882 -3.93186 -4.62479
upperback 1.31802 -5.37295 0.156619
thorax -0.013859 -2.70779 2.89035
lowerneck -12.7648 -2.84732 -8.03487
upperneck 14.2523 -3.1891 5.46564
head 6.66063 -1.51589 2.77527
rclavicle 1.29831e-013 1.19271e-015
rhumerus 54.7401 -25.3842 -56.8558
rradius 60.6209
rwrist -80.2252
rhand -33.9007 -15.4618
rfingers 7.12502
rthumb -7.08375 -45.3233
lclavicle 1.29831e-013 1.19271e-015
lhumerus 51.3289 -2.9499 56.1048
lradius 66.7713
lwrist 85.9273
lhand -10.9451 37.0737
lfingers 7.12502
lthumb 15.0734 66.5049
rfemur -6.96598 28.3802 8.58011
rtibia 29.0754
rfoot -17.5467 -4.12979
rtoes -13.5233
lfemur 2.727 -0.986268 -15.7901
ltibia 37.2997
lfoot -14.3822 12.0646
ltoes -24.3292
270
root -1.31749 18.3044 6.60578 -3.84606 35.7725 4.87798
lowerback 3.29637 -3.8549 -4.62711
upperback 1.24956 -5.27554 0.113202
thorax -0.12861 -2.65493 2.85361
lowerneck -12.3449 -2.79672 -8.00156
upperneck 14.2205 -3.16891 5.5299
head 6.57668 -1.50455 2.79549
rclavicle 7.00467e-014 -9.14409e-015
rhumerus 54.3836 -25.5263 -55.9361
rradius 63.4424
rwrist -79.3739
rhand -32.557 -13.261
rfingers 7.12502
rthumb -5.78656 -43.162
lclavicle 7.00467e-014 -9.14409e-015
lhumerus 51.5713 -1.77889 57.1491
lradius 68.6188
lwrist 86.5245
lhand -10.0076 36.1244
lfingers 7.12502
lthumb 15.9763 65.4856
rfemur -7.22402 28.6987 8.05138
rtibia 29.072
rfoot -17.4578 -4.12202
rtoes -13.7744
lfemur 3.29465 -0.256301 -16.1952
ltibia 36.4306
lfoot -15.0936 12.1223
ltoes -23.6318
271
root -1.25289 18.2986 6.54179 -4.06963 35.3879 4.72992
lowerback 3.53386 -3.75645 -4.38051
upperback 1.27742 -5.14735 0.133961
thorax -0.263226 -2.58725 2.75367
lowerneck -11.9915 -2.77334 -7.98472
upperneck 14.1656 -3.1763 5.59379
head 6.49913 -1.50655 2.81491
rclavicle 1.03989e-013 -6.75868e-015
rhumerus 54.0712 -25.8146 -54.9811
rradius 66.2539
rwrist -77.8277
rhand -31.3397 -11.3399
rfingers 7.12502
rthumb -4.61119 -41.2697
lclavicle 1.03989e-013 -6.75868e-015
lhumerus 51.9808 -0.645716 58.3257
lradius 70.498
lwrist 86.7053
lhand -9.38284 35.1826
lfingers 7.12502
lthumb 16.5779 64.4945
rfemur -7.14889 29.3472 7.97289
rtibia 28.9455
rfoot -17.3596 -4.48519
rtoes -14.1358
lfemur 4.07078 0.51467 -16.2704
ltibia 35.5072
lfoot -15.8334 12.1565
ltoes -22.4215
272
root -1.19211 18.2986 6.47737 -4.05879 34.9513 4.83341
lowerback 3.69247 -3.62427 -4.42281
upperback 1.32076 -4.97888 0.152603
thorax -0.315103 -2.50261 2.80219
lowerneck -11.844 -2.75166 -8.05707
upperneck 14.1548 -3.16982 5.75081
head 6.47314 -1.49658 2.87942
rclavicle 4.35338e-014 -8.34896e-015
rhumerus 53.9161 -26.204 -54.0454
rradius 69.0517
rwrist -75.6833
rhand -30.7451 -10.4823
rfingers 7.12502
rthumb -4.037 -40.4238
lclavicle 4.35338e-014 -8.34896e-015
lhumerus 52.4782 0.514471 59.6674
lradius 72.4225
lwrist 86.7572
lhand -8.93061 34.2367
lfingers 7.12502
lthumb 17.0132 63.5117
rfemur -7.15456 30.3034 7.6303
rtibia 28.7202
rfoot -17.2159 -5.0191
rtoes -14.3508
lfemur 4.72585 1.43121 -16.5338
ltibia 34.5409
lfoot -16.5215 12.1408
ltoes -21.2668
273
root -1.13259 18.3024 6.41179 -3.97544 34.4791 4.91355
lowerback 3.81207 -3.52071 -4.42376
upperback 1.29386 -4.84747 0.145923
thorax -0.420631 -2.43391 2.80256
lowerneck -11.6362 -2.68894 -7.93417
upperneck 14.1416 -3.12343 5.75753
head 6.42746 -1.46986 2.86712
rclavicle -2.43263e-014 1.15295e-014
rhumerus 53.7867 -26.547 -53.2729
rradius 71.8399
rwrist -73.1359
rhand -30.3758 -9.8064
rfingers 7.12502
rthumb -3.6804 -39.7544
lclavicle -2.43263e-014 1.15295e-014
lhumerus 52.8941 1.64754 60.9184
lradius 74.4604
lwrist 86.5432
lhand -8.92015 33.29
lfingers 7.12502
lthumb 17.0233 62.5641
rfemur -7.29555 31.2342 7.2504
rtibia 28.4924
rfoot -17.0311 -5.57287
rtoes -14.3852
lfemur 5.25824 2.26204 -16.8259
ltibia 33.5695
lfoot -17.0561 12.279
ltoes -20.7863
